<svg width="24.000000" height="24.000000" viewBox="0 0 24 24" fill="none" xmlns="http://www.w3.org/2000/svg" xmlns:xlink="http://www.w3.org/1999/xlink">
	<desc>
			Created with Pixso.
	</desc>
	<defs/>
	<rect id="Iconly/Light/Buy" width="24.000000" height="24.000000" fill="#FFFFFF" fill-opacity="0"/>
	<path id="Stroke 1" d="M8.18732 20.5853C8.18732 21.0073 7.8443 21.3494 7.4223 21.3494C7.00031 21.3494 6.65833 21.0073 6.65833 20.5853C6.65833 20.1633 7.00031 19.8203 7.4223 19.8203C7.8443 19.8203 8.18732 20.1633 8.18732 20.5853Z" stroke="#FFFFFF" stroke-opacity="1.000000" stroke-width="1.500000" stroke-linejoin="round"/>
	<path id="Stroke 3" d="M19.4397 20.5853C19.4397 21.0073 19.0967 21.3494 18.6747 21.3494C18.2527 21.3494 17.9097 21.0073 17.9097 20.5853C17.9097 20.1633 18.2527 19.8203 18.6747 19.8203C19.0967 19.8203 19.4397 20.1633 19.4397 20.5853Z" stroke="#FFFFFF" stroke-opacity="1.000000" stroke-width="1.500000" stroke-linejoin="round"/>
	<path id="Stroke 5" d="M2.74988 3.25L4.8299 3.60999L5.79291 15.083C5.87085 16.0179 6.65186 16.736 7.5899 16.736L18.5019 16.736C19.3979 16.736 20.1579 16.078 20.2869 15.1899L21.2359 8.63196C21.3529 7.823 20.7259 7.099 19.9089 7.099L5.16388 7.099" stroke="#FFFFFF" stroke-opacity="1.000000" stroke-width="1.500000" stroke-linejoin="round" stroke-linecap="round"/>
	<path id="Stroke 7" d="M14.1255 10.295L16.8985 10.295" stroke="#FFFFFF" stroke-opacity="1.000000" stroke-width="1.500000" stroke-linejoin="round" stroke-linecap="round"/>
</svg>
