<svg fill="none" height="24" viewBox="0 0 24 24" width="24" xmlns="http://www.w3.org/2000/svg"><g stroke="#000" stroke-linecap="round" stroke-linejoin="round" stroke-width="1.5"><path d="m2.75012 3.25002 2.08.36.963 11.47298c.077.937.86 1.656 1.8 1.653h10.90898c.897.002 1.658-.658 1.785-1.546l.949-6.55798c.106-.733-.403-1.413-1.135-1.519-.064-.009-14.93698-.014-14.93698-.014"/><path d="m14.1251 10.7949h2.773"/><g clip-rule="evenodd" fill="#000" fill-rule="evenodd"><path d="m7.15447 20.2026c.301 0 .544.244.544.544 0 .301-.243.545-.544.545s-.544-.244-.544-.545c0-.3.243-.544.544-.544z"/><path d="m18.4347 20.2026c.301 0 .545.244.545.544 0 .301-.244.545-.545.545s-.544-.244-.544-.545c0-.3.243-.544.544-.544z"/></g></g></svg>